<svg xmlns="http://www.w3.org/2000/svg" viewBox="0 0 35.17 35.91"><defs><style>.cls-1{fill:#fff;}</style></defs><g id="Layer_2" data-name="Layer 2"><g id="Layer_1-2" data-name="Layer 1"><path class="cls-1" d="M30,4.7,25.13,9.38c-.07-.06-.13-.09-.18-.14a10,10,0,0,0-8.88-2.45A11.07,11.07,0,0,0,7,16.3a11.26,11.26,0,0,0,8.27,12.64,11.14,11.14,0,0,0,8.07-.89,9.14,9.14,0,0,0,4.76-6c0-.13.05-.26.08-.45H18V15.41H34.91c.07.48.17,1,.2,1.44a18.31,18.31,0,0,1-3.32,12.57,15.46,15.46,0,0,1-9.72,6.06A18.13,18.13,0,0,1,9,33.48,17,17,0,0,1,.48,21.94,17.36,17.36,0,0,1,6.41,4.21,17.28,17.28,0,0,1,19.09,0,16.87,16.87,0,0,1,30,4.7Z"/></g></g></svg>