<svg xmlns="http://www.w3.org/2000/svg" viewBox="0 0 34.54 40"><defs><style>.cls-1{fill:#fff;}</style></defs><g id="Layer_2" data-name="Layer 2"><g id="Layer_1-2" data-name="Layer 1"><path class="cls-1" d="M34.53,20V34.58a6.08,6.08,0,0,1-.45,2.6,4.71,4.71,0,0,1-8.92-.94A7.77,7.77,0,0,1,25,34.57Q25,19.79,25,5A4.87,4.87,0,0,1,28.71.13,4.71,4.71,0,0,1,34.5,4.55c.07,2.22,0,4.43,0,6.65Z"/><path class="cls-1" d="M12.49,27.47c0-2.5,0-5,0-7.5a4.83,4.83,0,0,1,5-4.75A4.76,4.76,0,0,1,22,19.93c0,1.1,0,2.21,0,3.32,0,3.88,0,7.75,0,11.62a4.91,4.91,0,0,1-2,4.21,4.74,4.74,0,0,1-7.5-3.23,10.09,10.09,0,0,1-.09-1.35C12.48,32.16,12.48,29.81,12.49,27.47Z"/><path class="cls-1" d="M4.78,30.46A4.76,4.76,0,1,1,0,35.21,4.78,4.78,0,0,1,4.78,30.46Z"/></g></g></svg>