<svg xmlns="http://www.w3.org/2000/svg" viewBox="0 0 35.17 37.05"><defs><style>.cls-1{fill:#fff;}</style></defs><g id="Layer_2" data-name="Layer 2"><g id="Layer_1-2" data-name="Layer 1"><path class="cls-1" d="M24,.12a2.63,2.63,0,0,0-3,1.09A17.35,17.35,0,0,0,17.64.9,17.63,17.63,0,0,0,9.57,34.21a2.57,2.57,0,0,0,1.71,2.69,2.39,2.39,0,0,0,2-.16,2.37,2.37,0,0,0,1-.93,1.5,1.5,0,0,0,.26-.52h0l2-5.95,7-20,2-5.95a1.86,1.86,0,0,0,.11-.57,2.67,2.67,0,0,0-.37-1.55A2.55,2.55,0,0,0,24,.12Zm5,5-2.43,7.34a10.61,10.61,0,0,1,1.86,6.05,10.85,10.85,0,0,1-7.18,10.25h0l-2.44,7.34A17.6,17.6,0,0,0,29,5.14ZM17.53,7.67a5.49,5.49,0,0,1,1,.06h0l-6.83,20a11,11,0,0,1-5-9.16A10.86,10.86,0,0,1,17.53,7.67Z"/></g></g></svg>