<svg xmlns="http://www.w3.org/2000/svg" viewBox="0 0 35.17 35.18"><defs><style>.cls-1{fill:#fff;}</style></defs><g id="Layer_2" data-name="Layer 2"><g id="Layer_1-2" data-name="Layer 1"><path class="cls-1" d="M23.94,5.9l-4.19,4.25a10,10,0,1,0,5.32,13A9.83,9.83,0,0,0,25.23,16l4.27-4.37c3.09,4.69,3.45,13.78-3.26,19.66a15.81,15.81,0,0,1-21.66-23C10.59,2.18,19.32,2.67,23.94,5.9Z"/><path class="cls-1" d="M18.41,20.59c-.69.61-1.24,1.5-2.42,1.5a2.39,2.39,0,0,1-1.78-.71c-1.27-1.26-2.55-2.5-3.74-3.82a2.48,2.48,0,0,1,1.41-4.22,2.71,2.71,0,0,1,2.54,1.21c.43.5.93.95,1.5,1.52L26.81,5l-2.35-.38,3.1-1.35h0L35.17,0c-1.45,3.7-4.41,10.79-4.41,10.79L30.5,8.27Z"/></g></g></svg>