<svg xmlns="http://www.w3.org/2000/svg" viewBox="0 0 35.17 24.69"><defs><style>.cls-1{fill:#fff;}</style></defs><g id="Layer_2" data-name="Layer 2"><g id="Layer_1-2" data-name="Layer 1"><path class="cls-1" d="M35.16,1.37c0-1-.33-1.36-1.38-1.37h-8c-.53,0-1,.08-1.26.62s0,1,.42,1.39c.81.82,1.68,1.58,2.41,2.48l-8.72,8.86-4-4C13.2,8,13.2,8,11.75,9.4,11.2,10,3.37,17.85.3,20.92a.85.85,0,0,0,0,1.33c.69.69,1.38,1.39,2.08,2.08a.84.84,0,0,0,1.37,0Q8.48,19.68,13.14,15l4.46,4.43c.7.69,1.08.7,1.76,0C21.78,17,29.39,9.36,30.77,8c.89.71,1.62,1.58,2.44,2.37.38.37.77.66,1.33.41s.63-.71.63-1.25C35.16,6.78,35.17,4.08,35.16,1.37Z"/></g></g></svg>