<svg xmlns="http://www.w3.org/2000/svg" viewBox="0 0 35.17 36.19"><defs><style>.cls-1{fill:#fff;}</style></defs><g id="Layer_2" data-name="Layer 2"><g id="Layer_1-2" data-name="Layer 1"><path class="cls-1" d="M34.23,13a17.43,17.43,0,0,0-16-11.93c0,.51.09,1,.14,1.52a16.08,16.08,0,0,1,14.81,12.6A15.48,15.48,0,0,1,27.44,31l-3.07-3.64c.4-1.28.79-2.55,1.2-3.88-2.28.37-4.46.87-6.69,1.21V23.23l5.41-4a28,28,0,0,0-3.15-7.95c.08-.25.25-.23.42-.24l5.75-.27c.6,0,1.2-.06,1.8-.1v-.07L18.21,5.33c-.16-1.77-.32-3.52-.49-5.33L5.08,3.56c.31,1.3.6,2.55.89,3.8l-4.23,3.1c0,.17-.14.33-.06.55l5.62.54c1,4.15,2,8.28,3,12.49L3.23,21.37c.18,1.64.35,3.22.53,4.81H3.65a15.68,15.68,0,0,1-.46-14.6l-1.63-.15A17.56,17.56,0,1,0,34.23,13Zm-20.4,9.38,8.89-2.66c0,.2-.17.22-.26.27l-4.41,2.66a.94.94,0,0,1-.59.14l-3.39-.28C14,22.54,13.87,22.6,13.83,22.42Zm6.44,11.73-6.13-8.06,4.19.44c1.22,2.38,2.44,4.78,3.69,7.21A14.13,14.13,0,0,1,20.27,34.15Z"/></g></g></svg>