<svg xmlns="http://www.w3.org/2000/svg" viewBox="0 0 35.17 32.3"><defs><style>.cls-1{fill:#fff;}</style></defs><g id="Layer_2" data-name="Layer 2"><g id="Layer_1-2" data-name="Layer 1"><path class="cls-1" d="M22.1,0A13.09,13.09,0,0,1,35.17,13.1,13,13,0,0,1,22,26.24,13,13,0,0,1,8.9,13,13.07,13.07,0,0,1,22.1,0Zm3,3.36A11.93,11.93,0,0,0,21.18,3a10.07,10.07,0,0,0-9.31,10A10.17,10.17,0,1,0,30.53,7.56l-4.21-6Z"/><polygon class="cls-1" points="2.82 32.3 0 29.09 8.91 21.36 11.74 24.57 2.82 32.3"/><path class="cls-1" d="M28.1,7.63V20.15H25V7.63H23.45s1.9-3,2.9-4.54c1,1.5,3,4.54,3,4.54Z"/><polygon class="cls-1" points="23.23 20.15 20.32 20.15 20.32 10.68 23.23 10.66 23.23 20.15"/><rect class="cls-1" x="15.87" y="12.78" width="2.98" height="7.37"/></g></g></svg>