<svg xmlns="http://www.w3.org/2000/svg" viewBox="0 0 35.17 21.1"><defs><style>.cls-1{fill:#fff;}</style></defs><g id="Layer_2" data-name="Layer 2"><g id="Layer_1-2" data-name="Layer 1"><path class="cls-1" d="M16.38,0c2.71,0,5.43,0,8.15,0a11.36,11.36,0,0,1,6.24,1.85,9.5,9.5,0,0,1,3.68,4.63,10.64,10.64,0,0,1-1,9.68,10.15,10.15,0,0,1-3.3,3.22,11.64,11.64,0,0,1-4.21,1.52,15.77,15.77,0,0,1-3.22.15c-.91,0-1.82-.13-2.73-.24a26.13,26.13,0,0,1-4.35-.93,33.33,33.33,0,0,1-4.21-1.58,23.59,23.59,0,0,1-4.15-2.28c-.5-.34-1-.73-1.44-1.1a.6.6,0,0,1-.18-.21c0-.15-.12-.34-.06-.45s.26-.17.4-.24.1,0,.15,0H11.9a.48.48,0,0,0,.41-.31.44.44,0,0,0-.15-.5,2.11,2.11,0,0,0-.31-.21c-1.78-.87-3.54-1.81-5.25-2.82C5.29,9.42,4,8.61,2.76,7.71A18.85,18.85,0,0,1,.22,5.53.91.91,0,0,1,0,5.26a.46.46,0,0,1,.45-.67H12.9a2.71,2.71,0,0,0,.4,0,.43.43,0,0,0,.34-.33.4.4,0,0,0-.16-.44,1.36,1.36,0,0,0-.39-.22A30.77,30.77,0,0,1,9,1.58,11.13,11.13,0,0,1,7.73.69a.52.52,0,0,1-.11-.4A.33.33,0,0,1,8,0h8.42ZM24.7,17.63a7.13,7.13,0,0,0,7.24-7.11,7.12,7.12,0,0,0-7.18-7.24,7.18,7.18,0,1,0-.06,14.35Z"/><path class="cls-1" d="M29.22,11.12c-.15,0-.31,0-.46,0a.62.62,0,0,1-.65-.59c-.05-.25-.08-.51-.14-.76a3.43,3.43,0,0,0-2.82-2.68L24.68,7c-.36-.06-.53-.2-.56-.55a4.1,4.1,0,0,1,0-1c0-.33.22-.46.55-.46A5.56,5.56,0,0,1,29,7a5.08,5.08,0,0,1,1.24,2.66,4.79,4.79,0,0,1,0,1,.46.46,0,0,1-.43.44c-.21,0-.43.05-.64.07Z"/></g></g></svg>