<svg xmlns="http://www.w3.org/2000/svg" viewBox="0 0 35.17 32.1"><defs><style>.cls-1{fill:#fff;}</style></defs><g id="Layer_2" data-name="Layer 2"><g id="Layer_1-2" data-name="Layer 1"><path class="cls-1" d="M35.17,26a6.11,6.11,0,0,1-11.36,3.15c-2.9-5-5.77-9.95-8.65-14.93-.88-1.52-1.75-3-2.63-4.55a6.9,6.9,0,0,1-1-4A6.17,6.17,0,0,1,16.83,0a6,6,0,0,1,5.5,2.21,9.17,9.17,0,0,1,.86,1.36q5.55,9.57,11.08,19.15A6.14,6.14,0,0,1,35.17,26Z"/><path class="cls-1" d="M0,26a6.11,6.11,0,1,1,6.11,6.11A6.12,6.12,0,0,1,0,26Z"/><path class="cls-1" d="M13.71,25a7.58,7.58,0,0,0-3.78-5.65,7.58,7.58,0,0,0-6.81-.44L10,7.05c0,.26.07.43.11.61a10,10,0,0,0,1.29,3c1.69,2.95,3.41,5.89,5.13,8.82a.63.63,0,0,1,0,.74c-.87,1.47-1.71,3-2.57,4.43A3.57,3.57,0,0,1,13.71,25Z"/></g></g></svg>