<svg xmlns="http://www.w3.org/2000/svg" viewBox="0 0 35.17 40"><defs><style>.cls-1{fill:#fff;}</style></defs><g id="Layer_2" data-name="Layer 2"><g id="Layer_1-2" data-name="Layer 1"><path class="cls-1" d="M24.15,4.72s-.1,0-.13,0-.48.12-1.19.35c-.71-2.06-2-3.95-4.18-3.95h-.2A2.72,2.72,0,0,0,16.37,0h0C11.19,0,8.71,6.46,7.94,9.74c-2,.61-3.44,1.06-3.6,1.13-1.13.35-1.16.38-1.29,1.45-.13.77-3,23.43-3,23.43L22.6,40Zm-5-2.14c1.16.12,1.9,1.44,2.38,2.92l-1.93.61V5.47a9.42,9.42,0,0,0-.47-3l0,.07Zm-.9,3.72v.22l-4,1.23a6.93,6.93,0,0,1,3.44-4.93l0,0A9.65,9.65,0,0,1,18.27,6c0,.12,0,.24,0,.36v0ZM16.2,1.38h0a1.14,1.14,0,0,1,.68.23h0A8.58,8.58,0,0,0,12.7,8.23v0c-1.1.36-2.16.68-3.15,1,.86-3,2.95-7.82,6.65-7.82Zm.9,17.46a7.08,7.08,0,0,0-3-.7h0c-2.41,0-2.51,1.51-2.51,1.9,0,2.05,5.4,2.86,5.4,7.71a5,5,0,0,1,0,.57,5.7,5.7,0,0,1-5.7,5.7h-.23a7.8,7.8,0,0,1-5.67-2.44h0L6.54,28.1a7.47,7.47,0,0,0,3.76,1.77h.09A1.59,1.59,0,0,0,12,28.32h0c0-2.69-4.43-2.82-4.43-7.26V21a7.31,7.31,0,0,1,7.31-7.31,6.51,6.51,0,0,1,.77,0h.31a6.48,6.48,0,0,1,2.82.63l0,0-1.57,4.53Zm6,21.13,12-2.61L30.8,7.81a.38.38,0,0,0-.35-.32h0c-.16,0-3.22-.22-3.22-.22s-2.12-2.13-2.4-2.35a.5.5,0,0,0-.19-.13h0L23.11,40Z"/></g></g></svg>