<svg xmlns="http://www.w3.org/2000/svg" viewBox="0 0 40 28.78"><defs><style>.cls-1{fill:#fff;}</style></defs><g id="Layer_2" data-name="Layer 2"><g id="Layer_1-2" data-name="Layer 1"><path class="cls-1" d="M26.45,25.93h0a2.84,2.84,0,0,1-2.84,2.84h0A2.87,2.87,0,0,1,20.74,26v0h0a2.88,2.88,0,0,1,2.87-2.86h0a2.73,2.73,0,0,1,2,.84h0a2.74,2.74,0,0,1,.83,2v.05Zm-13,0V26a2.73,2.73,0,0,1-.84,2h0a2.78,2.78,0,0,1-2,.83h0a2.84,2.84,0,0,1-2.85-2.84h0v0a2.8,2.8,0,0,1,.83-2,2.73,2.73,0,0,1,2-.84h0a2.87,2.87,0,0,1,2.86,2.86ZM0,0A22.76,22.76,0,0,0,1.89,1.79l0,0A12.13,12.13,0,0,0,4,3.2l.07,0a16.62,16.62,0,0,0,2.24,1l.12,0a18.42,18.42,0,0,0,2.75.77l.13,0c1.13.23,2.28.42,3.47.55s2.63.24,4.34.32,3.47.14,5.28.17,4,0,6.46,0c1.61,0,3,0,4.25.09a31.3,31.3,0,0,1,3.31.3l-.17,0a14.31,14.31,0,0,1,2.25.51l-.1,0a3.14,3.14,0,0,1,1.24.69h0a1.38,1.38,0,0,1,.42.89h0a2,2,0,0,1-.34,1.12h0a8.51,8.51,0,0,1-1,1.33h0c-.41.47-.93,1-1.55,1.58s-1.3,1.19-2,1.82-1.52,1.31-2.41,2.06q-3.21,2.73-5,4.29a13.35,13.35,0,0,1,1.35-1.92l0,0c.55-.68,1.09-1.29,1.63-1.84s1.09-1.12,1.64-1.71,1-1.12,1.44-1.58a6.44,6.44,0,0,0,.92-1.37l0,0a2,2,0,0,0,.24-1,1.32,1.32,0,0,0,0-.28h0a1.58,1.58,0,0,0-.78-.95h0a6.19,6.19,0,0,0-2-.7h0a26.33,26.33,0,0,0-3.47-.4h-.07C27.12,9,25.36,9,23.32,9s-3.77,0-5.46-.11-3.17-.22-4.44-.4a27.47,27.47,0,0,1-3.74-.75l.19,0a26.5,26.5,0,0,1-3-1l.19.06A11.32,11.32,0,0,1,4.93,5.79l0,0A14.85,14.85,0,0,1,3.36,4.65l0,0A9.69,9.69,0,0,1,2.22,3.44v0a9.37,9.37,0,0,1-.85-1.16l0,0L.64,1C.37.57.15.23,0,0Z"/></g></g></svg>