<svg xmlns="http://www.w3.org/2000/svg" viewBox="0 0 40 36.5"><defs><style>.cls-1{fill:#fff;}</style></defs><g id="Layer_2" data-name="Layer 2"><g id="Layer_1-2" data-name="Layer 1"><path class="cls-1" d="M40,29.14a21.71,21.71,0,0,1-6,1.93,25.05,25.05,0,0,1-7.92.08l-.23-.06a11.27,11.27,0,0,1,.46-1.35c.42-.85.87-1.69,1.35-2.5a14.52,14.52,0,0,0,2-4.72,12.1,12.1,0,0,0-.6-6.44c0-.13,0-.27-.07-.41h0a67.81,67.81,0,0,1,8.18,9.48l2.63,3.63a2.11,2.11,0,0,0,.25.27Z"/><path class="cls-1" d="M37.41,13a6.6,6.6,0,0,1-1.08-1.92,6.08,6.08,0,0,0-1.56-2.26,2.49,2.49,0,0,0-3.63.07,7.76,7.76,0,0,0-2,3.41c-.25.77-.39,1.56-.58,2.35,0,.11-.06.22-.1.39l-.32-.26c-.73-.56-1.47-1.12-2.19-1.7a2.05,2.05,0,0,1-.51-.55,9.82,9.82,0,0,0-17.79.85,5.37,5.37,0,0,1-1.27,1.85,19.62,19.62,0,0,0-5.3,9.42c0,.14-.07.28-.13.54-.08-.22-.14-.34-.17-.46a18.67,18.67,0,0,1,.47-12.32A18.81,18.81,0,0,1,13.89.8,19.22,19.22,0,0,1,37.3,12.53a2.56,2.56,0,0,1,.1.48Z"/><path class="cls-1" d="M15.37,27c.4.24.8.48,1.19.73A26.17,26.17,0,0,0,21.05,30a2.39,2.39,0,0,0,.29.1c.13-.39.24-.77.4-1.14a2.48,2.48,0,0,1,.46-.74c1.4-1.49,2.84-2.93,4.2-4.45a14.1,14.1,0,0,0,2.78-4.67,3.25,3.25,0,0,1,.33-.79c0,.86.14,1.73.13,2.59a12.82,12.82,0,0,1-2,6.07c-.47.82-1,1.62-1.4,2.48a5.63,5.63,0,0,0,1.19,6.66c.1.1.22.18.33.27l0,.09c-.62,0-1.25.05-1.87,0a7.61,7.61,0,0,1-2.8-.78,3.53,3.53,0,0,1-2-3.37V32a26,26,0,0,1-5.61-5Z"/><path class="cls-1" d="M7.66,13.92a9.9,9.9,0,0,1,8.5-6.49c3.75-.16,7.9,2.12,9,5a15.4,15.4,0,0,0-9-2A15.68,15.68,0,0,0,7.66,13.92Z"/><path class="cls-1" d="M11.49,19.41l7.32-1.81,1.78-5.44.33,1c.38,1.16.75,2.32,1.13,3.49a4.62,4.62,0,0,0,.67,1.42,2.55,2.55,0,0,1-.4,3.33,2.62,2.62,0,0,1-3.37.1,1.85,1.85,0,0,0-.61-.31c-2.28-.57-4.57-1.12-6.85-1.67Zm9.1-2.21a1,1,0,0,0-1,.95,1,1,0,0,0,.95,1,1,1,0,0,0,1-1A1,1,0,0,0,20.59,17.2Z"/><path class="cls-1" d="M39.33,29.83c-3,2.7-6.16,5.13-10.15,6.21-.42.11-.86.19-1.27.29a5.44,5.44,0,0,1-2.08-4.87l2.08.2a24.1,24.1,0,0,0,11-1.68,2.7,2.7,0,0,1,.4-.14Z"/><path class="cls-1" d="M26,13.2A15.78,15.78,0,0,1,28.11,15a4.72,4.72,0,0,1,1.05,3.38,6.05,6.05,0,0,1-.91,2.37,27.86,27.86,0,0,1-2.09,3.05,30.58,30.58,0,0,1-2.11,2.3,21.89,21.89,0,0,1-1.7,1.63l.18-.45c.71-1.63,1.47-3.24,2.13-4.89a20.56,20.56,0,0,0,1.21-8.08v-1Z"/><path class="cls-1" d="M36.31,11.52A4.13,4.13,0,0,0,34,10.45a3.75,3.75,0,0,0-2.69.71,8.07,8.07,0,0,0-2,2.15,4,4,0,0,1-.35.46,9.23,9.23,0,0,1,2.13-4.58A2.43,2.43,0,0,1,35,9.24,6,6,0,0,1,36.31,11.52Z"/><path class="cls-1" d="M37.74,19.42c-.3.49-.57.93-.84,1.39a.82.82,0,0,1-1.55,0,2.73,2.73,0,0,1-.26-2c.31-1.44.62-2.87.94-4.31,0-.08.06-.16.11-.3.28,1.29.56,2.52.81,3.76a2.11,2.11,0,0,0,.62,1.22A1.12,1.12,0,0,1,37.74,19.42ZM36.16,17.8a.66.66,0,0,0-.41.7c0,.3,0,.6.4.73.31-.08.39-.34.41-.61A.73.73,0,0,0,36.16,17.8Z"/><path class="cls-1" d="M37.4,13h0l0,0Z"/><polygon class="cls-1" points="28.94 15.67 28.92 15.7 28.93 15.68 28.94 15.67"/><path class="cls-1" d="M15.37,27l0,0h0Z"/><path class="cls-1" d="M39.32,29.84v0h0Z"/></g></g></svg>