<svg xmlns="http://www.w3.org/2000/svg" viewBox="0 0 38.85 40"><defs><style>.cls-1{fill:#fff;}</style></defs><g id="Layer_2" data-name="Layer 2"><g id="Layer_1-2" data-name="Layer 1"><path class="cls-1" d="M15.66,30l13.79-7.87-6.27-3.61L9.41,26.45ZM30.08,13.9l-6.27-3.6v7.14L30.08,21Zm.63-8.29-6.27,3.6,6.27,3.61L37,9.21ZM11.4,23.86,15,21.77V6L8.77,9.65V25.37ZM8.14,1.35,1.88,5l6.26,3.6L14.41,5ZM1.25,6V30.36L15,38.29V31.08L7.83,27,7.76,27l-.06,0h0l0-.06h0l-.05-.06h0a.2.2,0,0,1,0-.08h0l0-.07h0s0-.06,0-.1h0s0,0,0-.07h0V9.65L3.88,7.55ZM30.08,30.35V23.21L16.29,31.08v7.21ZM37.6,17.44V10.3l-6.27,3.61V21Zm1.23-8.39a.47.47,0,0,1,0,.17h0V17.8a.62.62,0,0,1-.31.54h0l-7.21,4.15v8.23a.62.62,0,0,1-.31.54h0L16,39.92l-.11,0h0l0,0-.16,0-.17,0h0l0,0h0l-.11-.05h0l-15-8.66A.64.64,0,0,1,0,30.72H0V5a.47.47,0,0,1,0-.17H0l0,0a.3.3,0,0,1,0-.1h0l0-.06h0l.06-.08.06,0,.07-.06h0L7.83.08A.65.65,0,0,1,8.14,0a.57.57,0,0,1,.32.09h0L16,4.41l.07.06h0l.06,0,.06.08,0,0h0l0,.09h0l0,0a.78.78,0,0,1,0,.16h0V21l6.27-3.6V9.21h0a1,1,0,0,1,0-.17h0s0,0,0-.05l0-.11h0s0,0,0-.06l.06-.07.06,0h0l.07-.05h0l7.52-4.33a.65.65,0,0,1,.31-.08.66.66,0,0,1,.32.08h0l7.52,4.33a.18.18,0,0,0,.07.05l.06,0,.06.07,0,.06h0l0,.09h0a.08.08,0,0,1,0,.05Z"/></g></g></svg>