<svg xmlns="http://www.w3.org/2000/svg" viewBox="0 0 36.37 40"><defs><style>.cls-1{fill:#fff;}</style></defs><g id="Layer_2" data-name="Layer 2"><g id="Layer_1-2" data-name="Layer 1"><g id="Q3_icons" data-name="Q3 icons"><path class="cls-1" d="M34.83,8.89,19.73.34a3.71,3.71,0,0,0-3.09,0L1.55,8.89A3.09,3.09,0,0,0,0,11.53V28.44a3.07,3.07,0,0,0,1.55,2.64l4,2.27A6.44,6.44,0,0,0,9,34.26c2.82,0,4.46-1.72,4.46-4.63V13a.46.46,0,0,0-.46-.45H11.09a.45.45,0,0,0-.45.45V29.63c0,1.36-1.36,2.63-3.55,1.54L2.91,28.81a.47.47,0,0,1-.18-.37V11.53a.67.67,0,0,1,.18-.45l15-8.46h.55l15,8.46a.68.68,0,0,1,.19.45V28.44a.45.45,0,0,1-.19.37l-15,8.45a.54.54,0,0,1-.55,0L14.1,35.08a.29.29,0,0,0-.37,0l-2.27,1c-.27.09-.64.18.09.64l5.09,2.82a2.84,2.84,0,0,0,3.09,0l15.1-8.46a3.08,3.08,0,0,0,1.54-2.64V11.53A3.1,3.1,0,0,0,34.83,8.89Z"/><path class="cls-1" d="M22.82,25.72c-4,0-4.81-.91-5.18-2.82a.37.37,0,0,0-.36-.37h-2a.38.38,0,0,0-.37.37c0,2.45,1.37,5.45,7.91,5.45,4.73,0,7.46-1.82,7.46-5s-2.18-4.09-6.82-4.64-5.09-.91-5.09-2,.36-2,3.82-2,4.27.64,4.73,2.64a.43.43,0,0,0,.45.36h1.91l.37-.18a.42.42,0,0,0,.09-.27c-.28-3.55-2.73-5.18-7.55-5.18s-6.82,1.81-6.82,4.72,2.54,4.1,6.64,4.55,5.36,1.09,5.36,2.09S26,25.72,22.82,25.72Z"/></g></g></g></svg>