<svg xmlns="http://www.w3.org/2000/svg" viewBox="0 0 40 35.69"><defs><style>.cls-1{fill:#fff;}</style></defs><g id="Layer_2" data-name="Layer 2"><g id="Layer_1-2" data-name="Layer 1"><path class="cls-1" d="M24.63,25.86A42.19,42.19,0,0,1,21.32,30c3.16,3.06,6.11,4.5,7.73,3.56s1.86-4.21.79-8.48A41.84,41.84,0,0,1,24.63,25.86ZM22.15,26c-1.43.06-2.87.06-4.3,0,.71.93,1.43,1.79,2.15,2.58C20.72,27.81,21.44,27,22.15,26ZM31.68,11.1C36.71,12.55,40,15,40,17.84s-3.29,5.3-8.32,6.75c1.26,5.08.83,9.13-1.68,10.57S23.77,35,20,31.33c-3.77,3.64-7.49,5.28-10,3.83S7.06,29.67,8.32,24.59C3.29,23.14,0,20.74,0,17.84s3.29-5.29,8.32-6.74C7.06,6,7.49,2,10,.52s6.23.2,10,3.84C23.77.72,27.49-.93,30,.52S32.94,6,31.68,11.1Zm-1.84-.47c1.07-4.27.85-7.53-.78-8.47s-4.58.49-7.73,3.56a45.18,45.18,0,0,1,3.3,4.11A41.88,41.88,0,0,1,29.84,10.63ZM10.16,25.05c-1.07,4.27-.85,7.54.78,8.48S15.52,33,18.67,30a43.64,43.64,0,0,1-3.3-4.11A41.78,41.78,0,0,1,10.16,25.05ZM17.85,9.67c1.43-.06,2.87-.06,4.3,0-.68-.89-1.4-1.75-2.15-2.58-.72.79-1.44,1.65-2.15,2.58Zm-2.48.16a42.19,42.19,0,0,1,3.31-4.11C15.52,2.65,12.57,1.22,11,2.16s-1.86,4.21-.79,8.47a43.84,43.84,0,0,1,5.21-.8ZM23.58,24a48.22,48.22,0,0,0,3.58-6.2,48.79,48.79,0,0,0-3.58-6.19,47.54,47.54,0,0,0-7.16,0,48.79,48.79,0,0,0-3.58,6.19A48.22,48.22,0,0,0,16.42,24a47.54,47.54,0,0,0,7.16,0ZM26,23.8c1.16-.16,2.26-.35,3.3-.58-.34-1.07-.72-2.12-1.15-3.15-.67,1.27-1.39,2.51-2.15,3.72ZM14,11.89c-1.16.15-2.26.35-3.3.58.32,1,.7,2.06,1.15,3.15.67-1.27,1.39-2.52,2.15-3.73Zm-3.3,11.33q1.56.34,3.3.57c-.76-1.21-1.48-2.45-2.15-3.72C11.39,21.15,11,22.21,10.69,23.22Zm-1.85-.46a40.28,40.28,0,0,1,1.91-4.92,40.17,40.17,0,0,1-1.91-4.91c-4.24,1.2-6.95,3-6.95,4.91s2.71,3.71,7,4.92ZM29.31,12.47c-1-.23-2.14-.43-3.3-.58.76,1.21,1.48,2.45,2.15,3.72C28.61,14.53,29,13.48,29.31,12.47Zm1.85.46a40.17,40.17,0,0,1-1.91,4.91,40.28,40.28,0,0,1,1.91,4.92c4.24-1.21,7-3,7-4.92s-2.71-3.71-6.95-4.91ZM20,21.4a3.56,3.56,0,0,1,0-7.11h0a3.56,3.56,0,0,1,0,7.11Z"/></g></g></svg>