<svg xmlns="http://www.w3.org/2000/svg" viewBox="0 0 40 40"><defs><style>.cls-1{fill:#fff;fill-rule:evenodd;}</style></defs><g id="Layer_2" data-name="Layer 2"><g id="Layer_1-2" data-name="Layer 1"><path class="cls-1" d="M6.91,10.48a16.19,16.19,0,0,1,25.44-1,3.65,3.65,0,0,0-4.6,4.57L29,18l-3.37,8.32-3.6-9-1.24-3.09H21.9a1.91,1.91,0,1,0,0-3.81H16.19a1.91,1.91,0,0,0,0,3.81h.49l1.53,3.79-3.54,8.43L9.53,14.29h1a1.91,1.91,0,0,0,0-3.81ZM5.12,13.61a16.19,16.19,0,1,0,29.7-.14,4,4,0,0,1-.23.89l-1.8,4.45-5.4,13.33a1.9,1.9,0,0,1-3.53,0l-3.63-9-3.81,9.06a1.91,1.91,0,0,1-3.51,0ZM20,0A20,20,0,1,0,40,20,20,20,0,0,0,20,0Z"/></g></g></svg>