<svg xmlns="http://www.w3.org/2000/svg" viewBox="0 0 34.99 40"><defs><style>.cls-1{fill:#fff;}</style></defs><g id="Layer_2" data-name="Layer 2"><g id="Layer_1-2" data-name="Layer 1"><path class="cls-1" d="M17.65,40C8.36,40,0,32.68,0,22.73S7.75,8.2,9.18,7.45a25.15,25.15,0,0,0,4.88-2.94c.95-.75,1.75-1.85,2-4.51A27.77,27.77,0,0,0,20.3,4.4c1.93,1.27,3.87,1.77,5.9,3.05A18.07,18.07,0,0,1,35,23.05C35,33.26,26.93,40,17.65,40ZM31.32,23.51c-1.82,0-5.51,3.78-7.45,3.8-2.25.05-5.37-4.46-9.88-4.42a6.33,6.33,0,0,0-6.4,5.86,4.11,4.11,0,0,0,1.68,3.73c.78.52,1.48.84,3.78.84,3.83,0,8.68-4.74,10.92-4.66,1.77.06,4.53,4.42,5.92,4.51,1.09.09,1.66-.41,2.59-1.76a9.66,9.66,0,0,0,1.3-4.71c0-1.19-.52-3.19-2.46-3.19ZM26,35.6a8.82,8.82,0,0,1-5,1.28c-2.46,0-3.62-.53-4.39-1.12-.12-.09-.07-.09-.3-.09a.89.89,0,0,0-.59.28.58.58,0,0,0,0,.82c1.68,1.54,4.51,1.41,6.58,1.22a8.51,8.51,0,0,0,4.06-1.61.57.57,0,0,0,.15-.66c0-.16-.18-.39-.54-.12Zm-1.23-3.89a3.24,3.24,0,0,0-1.73-.34,3.39,3.39,0,0,0-1.61.22,7,7,0,0,0-1.78,1.28c-.44.39-.51.68-.28,1s.48.11,1.12-.43a3.18,3.18,0,0,1,2.44-1c1.34,0,1.57.5,1.84,1s.3.57.57.43a.55.55,0,0,0,.32-.78,3.3,3.3,0,0,0-.89-1.38Z"/></g></g></svg>