<svg xmlns="http://www.w3.org/2000/svg" viewBox="0 0 40 15.9"><defs><style>.cls-1{fill:#fff;}</style></defs><g id="Layer_2" data-name="Layer 2"><g id="Layer_1-2" data-name="Layer 1"><path class="cls-1" d="M5.72,10.67c.12-.47.25-.94.37-1.41.48-1.8.94-3.61,1.43-5.42a7.41,7.41,0,0,1,.76-2l0,0A2.39,2.39,0,0,1,10,.73h0a2.47,2.47,0,0,1,.56-.06,2.67,2.67,0,0,1,2,.86h0a2.71,2.71,0,0,1,.51.91h0a25.88,25.88,0,0,1,.89,3l0,.2c.44,1.65.87,3.3,1.31,5,0,0,0,.08.06.12.09-.37.19-.74.28-1.11.57-2.2,1.14-4.41,1.7-6.61.1-.42.21-.83.32-1.24A2.67,2.67,0,0,1,18,.9h0A1.67,1.67,0,0,1,19.08.2h0A8.56,8.56,0,0,1,20.83,0h0c.12,0,.14,0,.11.14-.51,2-1,4-1.54,5.93C18.64,9,17.87,12,17.11,14.87c-.08.29-.15.58-.22.87,0,0,0,.1-.1.11H16.4a4.36,4.36,0,0,1-1.26-.18h0a1.33,1.33,0,0,1-.52-.33,7.67,7.67,0,0,1-.56-.58h0a4.67,4.67,0,0,1-.47-.95v0a21.58,21.58,0,0,1-1.14-3.66l0-.15C12,8.11,11.49,6.24,11,4.37a.87.87,0,0,0-.14-.31h0a.42.42,0,0,0-.36-.22h0a.48.48,0,0,0-.4.32h0c-.16.51-.28,1-.41,1.54C9.13,7.85,8.59,10,8,12.15c-.17.64-.46,1.24-.67,1.87a3.25,3.25,0,0,1-1.11,1.46h0a1.59,1.59,0,0,1-.8.33h0a7.34,7.34,0,0,1-.85,0H4.31c-.1,0-.13,0-.16-.14L2.53,9.65q-1-4-2.12-8L0,.18S0,.06.07.05A5,5,0,0,1,.65,0,4.3,4.3,0,0,1,2.51.43l0,0a1.64,1.64,0,0,1,.82,1v0c.29.93.5,1.87.74,2.81q.83,3.19,1.64,6.38l0,.08h0Z"/><path class="cls-1" d="M25.57,15.89,26,15.2q2.4-3.58,4.81-7.15a.19.19,0,0,0,0-.08.12.12,0,0,0-.05-.1c-1.32-2-2.65-3.94-4-5.92L25.65.15s-.06-.06,0-.11l.82,0,1.5.09A2,2,0,0,1,29,.64h0a3,3,0,0,1,.66.71h0c.86,1.31,1.71,2.63,2.61,3.91.4.57.57.51,1,.09a5,5,0,0,0,.57-.82v0c.75-1.11,1.48-2.23,2.24-3.32A2.58,2.58,0,0,1,37.89.11h0A14.25,14.25,0,0,1,39.43,0h.5c.13,0,0,.07,0,.11L38.84,1.8,34.77,7.86a.18.18,0,0,0,0,.1.17.17,0,0,0,.05.12q2.58,3.84,5.15,7.67s.08.07.06.11-.09,0-.13,0h-.5c-.49,0-1,0-1.45-.07H38a2.83,2.83,0,0,1-1.78-.9h0a6.24,6.24,0,0,1-.61-.88l0,0c-.72-1.08-1.43-2.16-2.16-3.24a1.36,1.36,0,0,0-.42-.44h0a.32.32,0,0,0-.21-.08.29.29,0,0,0-.21.08,1,1,0,0,0-.31.31h0c-.91,1.3-1.75,2.65-2.64,4a2.72,2.72,0,0,1-1.81,1.18h0a7.34,7.34,0,0,1-1.19.1h-1Z"/><path class="cls-1" d="M24.4,2.59V2.8q0,5.49,0,11v.07a2,2,0,0,1-1,1.74h0a1.68,1.68,0,0,1-.74.26h0a7.28,7.28,0,0,1-.84,0h-.05c-.18,0-.18,0-.18-.18,0-2,0-4,0-5.93,0-1.66,0-3.32,0-5A.88.88,0,0,1,22,4.07h0c.25-.16.52-.27.77-.41a8.94,8.94,0,0,0,1.34-.79l0,0,.32-.31Z"/><path class="cls-1" d="M21.52,3.29V3.23a5.51,5.51,0,0,1,.17-1.36v0A2.54,2.54,0,0,1,22.56.57h0a2.87,2.87,0,0,1,1.36-.5h0c.15,0,.3,0,.44-.06s.16.05.17.15V.23a2.88,2.88,0,0,1-.06.59v0a3.17,3.17,0,0,1-.86,1.71,2.43,2.43,0,0,1-.9.54h0a4.12,4.12,0,0,0-1,.54h0s-.09.1-.16.07,0-.11,0-.17,0-.13,0-.19Z"/></g></g></svg>