<svg xmlns="http://www.w3.org/2000/svg" viewBox="0 0 40 39.95"><defs><style>.cls-1{fill:#fff;}</style></defs><g id="Layer_2" data-name="Layer 2"><g id="Layer_1-2" data-name="Layer 1"><g id="_5151e0c8492e5103c096af88a51f5afa" data-name="5151e0c8492e5103c096af88a51f5afa"><path class="cls-1" d="M.05,5.35a5.35,5.35,0,0,1,10.63-.87A8.88,8.88,0,0,1,19,6.85l.31.3L15.34,11.1,15,10.79a3.29,3.29,0,0,0-4.65,4.65l.78.77,3.95,3.95,4.17,4.17-3.94,4L11.16,24.1,7.21,20.16l-.77-.77a8.85,8.85,0,0,1-2.22-8.82A5.35,5.35,0,0,1,.05,5.35ZM11.62,15.74l4,4,4.18-4.17,3.95-3.95.77-.77a3.27,3.27,0,1,1,4.63,4.63l-.3.31,3.95,4,.3-.31a8.84,8.84,0,0,0,2.25-8.72,5.35,5.35,0,1,0-6-6,8.9,8.9,0,0,0-8.78,2.24l-.77.77-3.95,4ZM35.4,29.3a8.86,8.86,0,0,0-2.35-8.37l-.77-.77-4-3.95L24.17,12l-4,3.94,4.17,4.18,3.94,3.95.77.77a3.27,3.27,0,1,1-4.63,4.63l-.3-.3-4,3.95.3.3a8.89,8.89,0,0,0,8.88,2.21,5.35,5.35,0,1,0,6-6.37Zm-7.53-4.73-3.95-3.94L19.75,24.8,15.8,28.75l-.77.77a3.29,3.29,0,0,1-4.65-4.65l.31-.3L6.74,20.63l-.3.3a8.83,8.83,0,0,0-2.32,8.46,5.35,5.35,0,1,0,6.45,6.41A8.86,8.86,0,0,0,19,33.47l.77-.78,3.95-3.95Z"/></g></g></g></svg>