<svg xmlns="http://www.w3.org/2000/svg" viewBox="0 0 40 20.1"><defs><style>.cls-1{fill:#fff;}</style></defs><g id="Layer_2" data-name="Layer 2"><g id="Layer_1-2" data-name="Layer 1"><path class="cls-1" d="M9.1,4.23a4.56,4.56,0,0,1,3.78,1.5,5.08,5.08,0,0,1,.78,4A7.85,7.85,0,0,1,13,12.09a6.72,6.72,0,0,1-1.42,2,4.82,4.82,0,0,1-2.36,1.46,10.86,10.86,0,0,1-2.62.31H3.92L3.08,20.1H0L3.17,4.23Zm26.24,0a4.56,4.56,0,0,1,3.78,1.5,5,5,0,0,1,.78,4,7.56,7.56,0,0,1-.69,2.31,6.86,6.86,0,0,1-1.41,2,4.89,4.89,0,0,1-2.37,1.46,10.72,10.72,0,0,1-2.61.31H30.16l-.84,4.21H26.24L29.41,4.23ZM20.22,0l-.87,4.23H22.1a5.51,5.51,0,0,1,3.36.93c.76.59,1,1.71.67,3.36l-1.49,7.37h-3.1l1.42-7a2,2,0,0,0-.13-1.57,1.9,1.9,0,0,0-1.53-.46l-2.46,0L17,15.89H14L17.16,0ZM6.71,6.75a4.52,4.52,0,0,1-.51,0H5.75L4.43,13.39a1.14,1.14,0,0,0,.26,0H5A11.29,11.29,0,0,0,8.54,13c1-.31,1.58-1.38,1.91-3.23.26-1.55,0-2.44-.8-2.68A10.27,10.27,0,0,0,6.71,6.75ZM33,6.75a4.52,4.52,0,0,1-.51,0H32l-1.32,6.62a1.18,1.18,0,0,0,.26,0h.31A11.4,11.4,0,0,0,34.79,13c.94-.31,1.57-1.38,1.9-3.23.27-1.55,0-2.44-.8-2.68A10.27,10.27,0,0,0,33,6.75Z"/></g></g></svg>