<svg xmlns="http://www.w3.org/2000/svg" viewBox="0 0 40 23.81"><defs><style>.cls-1{fill:#fff;}</style></defs><g id="Layer_2" data-name="Layer 2"><g id="Layer_1-2" data-name="Layer 1"><path class="cls-1" d="M33.73,6.7a1.89,1.89,0,0,0-1.48,1v0a5.19,5.19,0,0,0-.86,1.91v0a5.88,5.88,0,0,0-.11,1.14v.06h0a4,4,0,0,0,.3,1.51v0c.25.64.57,1,1,1.07h.14a1.56,1.56,0,0,0,1.18-.53h0a4.32,4.32,0,0,0,1.24-2.39v0a6.42,6.42,0,0,0,.12-1.2h0a4.24,4.24,0,0,0-.31-1.51v0c-.24-.64-.57-1-1-1.07l-.22,0Zm-10.25,0a1.88,1.88,0,0,0-1.48,1v0a5.19,5.19,0,0,0-.86,1.91v0A5,5,0,0,0,21,10.81v.07h0a4.25,4.25,0,0,0,.31,1.52v0c.24.64.57,1,1,1.07h.15a1.52,1.52,0,0,0,1.17-.53h0a4.32,4.32,0,0,0,1.24-2.39v0A5.7,5.7,0,0,0,25,9.35V9.27h0a4,4,0,0,0-.3-1.51v0c-.25-.63-.57-1-1-1.06l-.21,0h0ZM33.65,4a4.63,4.63,0,0,1,.92.1h0a3.74,3.74,0,0,1,2.6,1.87V6a6.06,6.06,0,0,1,.79,3v.21h0v.08a8.77,8.77,0,0,1-1.3,4.59l0,0a4.36,4.36,0,0,1-3.84,2.45h0a4.53,4.53,0,0,1-.91-.1h0a3.77,3.77,0,0,1-2.61-1.87v0a6.33,6.33,0,0,1-.79-3.06c0-.06,0-.13,0-.19h0v-.09a8.65,8.65,0,0,1,1.29-4.56l0,0A4.43,4.43,0,0,1,33.65,4h0ZM23.4,4a4.45,4.45,0,0,1,.91.1h0a3.8,3.8,0,0,1,2.6,1.87V6a6.06,6.06,0,0,1,.79,3v.21h0v.08a8.77,8.77,0,0,1-1.3,4.59l0,0a4.36,4.36,0,0,1-3.84,2.45h0a4.45,4.45,0,0,1-.91-.1h0a3.77,3.77,0,0,1-2.61-1.87v0a6.22,6.22,0,0,1-.79-3.06V11h0v-.09a8.66,8.66,0,0,1,1.3-4.56l0,0A4.39,4.39,0,0,1,23.4,4ZM17.18,2.19a1.39,1.39,0,0,1,.89.33h0a1.29,1.29,0,0,1,.51.93h0v.12a1.39,1.39,0,0,1-.17.67h0a19.72,19.72,0,0,0-1.58,5.82v.09a29.41,29.41,0,0,0-.48,5.33c0,.32,0,.63,0,.94v0c0,.06,0,.13,0,.2a2,2,0,0,1-.21.89h0a1.05,1.05,0,0,1-.86.58h0a1.61,1.61,0,0,1-1.27-.6h0a16.18,16.18,0,0,1-3.59-6.85l0-.11Q9.2,12.81,8,15.17C7.08,17,6.26,18,5.57,18c-.44,0-.81-.34-1.14-1.13A66.62,66.62,0,0,1,1.77,4.83l0-.35a1.66,1.66,0,0,1,0-.24A1.44,1.44,0,0,1,2,3.38H2a1.35,1.35,0,0,1,1-.5H3a.85.85,0,0,1,.23,0,1.2,1.2,0,0,1,1.2,1.2h0C5,7.47,5.51,10.37,6.1,12.74L9.68,5.92a1.54,1.54,0,0,1,1.22-1h0c.72-.05,1.16.41,1.34,1.37a31,31,0,0,0,1.63,5.8l-.07-.2A25.21,25.21,0,0,1,16,2.75L16,2.91A1.28,1.28,0,0,1,17,2.19h.15ZM3.71,0A3.71,3.71,0,0,0,0,3.71v0H0V16.16H0a3.73,3.73,0,0,0,3.73,3.73H19.15l7.05,3.92-1.6-3.92H36.27A3.73,3.73,0,0,0,40,16.16h0V3.73h0A3.73,3.73,0,0,0,36.27,0H3.71Z"/></g></g></svg>