<svg xmlns="http://www.w3.org/2000/svg" viewBox="0 0 33.23 40"><defs><style>.cls-1{fill:#fff;}</style></defs><g id="Layer_2" data-name="Layer 2"><g id="Layer_1-2" data-name="Layer 1"><path class="cls-1" d="M15.68,0c1.47,2.37-.46,5.51-2,7.26s-3.32,3.13-5,4.67a41,41,0,0,0-4.88,5.26l-.07.1A16,16,0,0,0,.38,31.06l0-.11a13.25,13.25,0,0,0,10.19,9h.09A7.65,7.65,0,0,1,6,33.66v0a9,9,0,0,1,4.14-7.05l0,0a3,3,0,0,0-.25,1.23,3.19,3.19,0,0,0,.51,1.73h0a2.76,2.76,0,1,0,3.95-3.78h0A6.21,6.21,0,0,1,12,20.86a6.84,6.84,0,0,1,.05-.79v0a5.87,5.87,0,0,1,1.86-3h0c-.68,1.8,1.26,3.56,2.54,4.45a67,67,0,0,1,6.86,4.6l-.17-.12A8.72,8.72,0,0,1,26.59,33c0,.16,0,.32,0,.48v0A8.39,8.39,0,0,1,20.88,40l-.06,0c6-1.33,12.28-6,12.4-12.71.16-5.06-3.17-9.53-8.6-12.31a1.44,1.44,0,0,1-.1,1.55h0a3,3,0,0,1-2.48,1.36,2.91,2.91,0,0,1-2.24-1.05h0c-2-2.58,0-5.36.33-8.09V8.43A10.21,10.21,0,0,0,15.71,0l0,0Z"/></g></g></svg>