<svg width="408" height="230" viewBox="0 0 408 230" fill="none" xmlns="http://www.w3.org/2000/svg">
<path fill-rule="evenodd" clip-rule="evenodd" d="M189.341 152.214C189.341 86.8741 189.177 75.4414 188.257 76.5185C187.661 77.2169 175.66 98.8706 161.588 124.636C118.528 203.481 115.819 208.356 115.067 208.356C114.152 208.356 90.9637 194.583 90.5074 193.769C90.3231 193.44 97.5323 179.703 106.53 163.241C118.602 141.156 130.676 119.071 142.752 96.9885C153.676 77.0107 162.444 60.476 162.235 60.246C162.027 60.0174 133.455 77.1973 98.7423 98.4246L35.6269 137.02L28.5371 124.054C24.6376 116.924 21.4473 110.819 21.4486 110.49C21.4511 110.159 24.3771 108.103 27.9525 105.921L91.2052 67.3143L147.958 32.6768L74.2585 32.2421L0.557983 31.8073V1.44451L75.513 1.22293L150.469 1.00134L176.972 28.7682C191.549 44.0394 203.682 56.5337 203.935 56.5337C204.36 56.5337 226.15 33.9432 243.729 15.2782C247.848 10.9054 252.673 5.91128 254.452 4.18207L257.688 1.0364L332.488 1.23976L407.287 1.44451V31.8073L333.588 32.2421L259.887 32.674L323.147 71.2818C357.941 92.5147 386.316 110.312 386.206 110.829C386.096 111.345 382.99 117.318 379.305 124.1C374.539 132.87 372.251 136.33 371.377 136.08C370.139 135.727 256.013 66.2821 249.049 61.6456C246.99 60.274 245.306 59.5265 245.306 59.9851C245.306 60.4437 261.457 90.3465 281.197 126.434C300.937 162.522 317.165 192.464 317.259 192.97C317.423 193.858 295.388 208.265 293.782 208.321C293.136 208.344 236.929 107.963 223.496 82.7972C221.402 78.8732 219.423 75.6518 219.096 75.6405C218.771 75.6279 218.505 110.169 218.505 152.397V229.177H189.341V152.212V152.214Z" fill="#FF3301"/>
</svg>
