<?xml version="1.0" encoding="UTF-8"?>
<svg id="Layer_2" data-name="Layer 2" xmlns="http://www.w3.org/2000/svg" viewBox="0 0 40.75 39.74">
  <g id="Layer_1-2" data-name="Layer 1">
    <g>
      <path d="M16.23,14.56c-.58-.24-1.19-.35-1.82-.35-.6,0-1.2,.01-1.8,.02-.08,0-.15,0-.26,.02v5.71c.09,.01,.17,.03,.26,.03,.45,0,.9,0,1.36,.01,.42,0,.83-.04,1.23-.13,.43-.09,.86-.2,1.25-.42,.64-.36,1.11-.86,1.26-1.61,.09-.44,.12-.89,.05-1.33-.16-.92-.65-1.59-1.53-1.95Z"/>
      <path d="M34.45,0H6.3C2.82,0,0,2.82,0,6.3v27.13c0,3.48,2.82,6.3,6.3,6.3h28.14c3.48,0,6.3-2.82,6.3-6.3V6.3c0-3.48-2.82-6.3-6.3-6.3Zm-13.3,19.15c-.47,1.48-1.47,2.51-2.84,3.2-.75,.38-1.56,.58-2.39,.7-1.03,.15-2.07,.14-3.11,.1-.13,0-.26,0-.39,0-.02,0-.05,.01-.09,.03v5.27c0,.05,0,.1,0,.16,0,.16-.07,.22-.23,.23-.03,0-.06,0-.1,0-1.01,0-2.02,0-3.02,0-.03,0-.06,0-.1,0-.15,0-.2-.06-.22-.21,0-.05,0-.1,0-.16,0-5.72,0-11.43,0-17.15,0-.1,.02-.2,.03-.32,.11-.01,.17-.03,.24-.03,1.77-.03,3.54-.07,5.31-.1,.79-.01,1.58,.06,2.35,.23,.85,.19,1.66,.49,2.39,.97,1.12,.74,1.87,1.75,2.24,3.04,.39,1.35,.36,2.7-.07,4.03Zm10.95-.56c-.06,.12-.16,.12-.26,.12-.28,0-.56,0-.83,.03-.84,.06-1.64,.26-2.41,.6-.36,.16-.66,.39-.88,.65v.23c0,2.75,0,5.51,0,8.26,0,.11-.02,.21-.03,.35-.1,.02-.17,.04-.24,.04-1.09,0-2.18,0-3.28,0-.2,0-.27-.08-.28-.28,0-.06,0-.13,0-.19,0-3.21,0-6.41,0-9.62,0-.95-.05-1.9-.08-2.85,0-.19-.03-.37-.04-.53,.05-.12,.14-.13,.22-.13,.39,0,.78,0,1.16,0,.54,0,1.09,0,1.63,0,.31,0,.43,.08,.5,.38,.07,.33,.12,.67,.17,1.01,.02,.13,.02,.26,.03,.4,.09-.02,.13-.09,.17-.14,.66-.71,1.45-1.25,2.35-1.6,.59-.23,1.21-.34,1.84-.33,.21,0,.27,.06,.27,.27,0,1.08,0,2.16,0,3.24,0,.04,0,.08,0,.1Z"/>
    </g>
  </g>
</svg>