<?xml version="1.0" encoding="UTF-8"?>
<svg id="Layer_2" data-name="Layer 2" xmlns="http://www.w3.org/2000/svg" viewBox="0 0 40.75 39.74">
  <g id="Layer_1-2" data-name="Layer 1">
    <g>
      <path d="M30.04,19.23c0-.17,.02-.33-.23-.36-1.41-.2-2.64,.12-3.57,1.24-.91,1.1-.87,2.38-.51,3.66,.32,1.13,1.11,1.79,2.26,2.02,.58,.12,1.16,.08,1.74,.04,.24-.02,.32-.12,.32-.37-.01-1.03,0-2.06,0-3.09s0-2.09,0-3.13Z"/>
      <path d="M34.45,0H6.3C2.82,0,0,2.82,0,6.3v27.13c0,3.48,2.82,6.3,6.3,6.3h28.14c3.48,0,6.3-2.82,6.3-6.3V6.3c0-3.48-2.82-6.3-6.3-6.3Zm-12.81,28.48c-.08,.12-.25,.05-.38,.05-1.08,0-2.16,0-3.24,0-.37,0-.6-.13-.76-.47-.88-1.8-1.85-3.55-2.83-5.29-.06-.1-.09-.23-.2-.3-1.03,1.91-2.05,3.8-3.05,5.69-.16,.3-.35,.4-.69,.39-.98-.02-1.97,0-2.95,0-.12,0-.27,.06-.34-.04-.09-.13,.04-.25,.11-.36,1.5-2.46,3-4.93,4.51-7.39,.15-.25,.17-.42,.01-.68-1.47-2.47-2.93-4.94-4.39-7.42-.06-.11-.2-.22-.13-.35,.07-.14,.24-.07,.37-.07,1.07,0,2.14,0,3.2,0,.26,0,.43,.09,.54,.34,.88,1.99,2.11,3.79,3.06,5.76,.12-.07,.15-.19,.2-.29,.91-1.89,1.97-3.7,2.93-5.57,.1-.2,.24-.24,.44-.23,1,0,1.99,0,2.99,0,.4,0,.41,.04,.2,.39-1.45,2.4-2.9,4.79-4.36,7.18-.15,.25-.16,.42,0,.68,1.56,2.53,3.1,5.07,4.65,7.61,.07,.12,.23,.24,.13,.38Zm11.73-.56c-2.34,.89-4.73,1.29-7.19,.6-2.57-.72-4.02-2.66-4.19-5.44-.2-3.2,1.57-5.83,4.55-6.78,.99-.32,2.01-.42,3.05-.36,.46,.03,.46,.03,.46-.42,0-1.42,0-2.84,0-4.26,0-.31,.1-.4,.39-.39,.87,.02,1.75,.02,2.62,0,.34,0,.45,.08,.45,.44-.02,2.68,0,5.36,0,8.05,0,1.94,0,3.88,0,5.83,0,.77,.04,1.53,.09,2.29,.01,.19,0,.36-.21,.44Z"/>
    </g>
  </g>
</svg>