<?xml version="1.0" encoding="UTF-8"?>
<svg id="Layer_2" data-name="Layer 2" xmlns="http://www.w3.org/2000/svg" viewBox="0 0 40.75 39.74">
  <g id="Layer_1-2" data-name="Layer 1">
    <g>
      <path d="M34.45,0H6.3C2.82,0,0,2.82,0,6.3v27.13c0,3.48,2.82,6.3,6.3,6.3h28.14c3.48,0,6.3-2.82,6.3-6.3V6.3c0-3.48-2.82-6.3-6.3-6.3Zm-12.51,27.46c-.09,0-.17,.02-.24,.02-.99,0-1.97,0-2.96,0-.22,0-.26-.03-.33-.24-.37-1.09-.74-2.18-1.12-3.26-.02-.05-.04-.11-.06-.16h-5.6c-.02,.07-.05,.13-.07,.2-.35,1.08-.7,2.17-1.05,3.25-.02,.05-.03,.1-.05,.14-.04,.08-.11,.13-.2,.14-.03,0-.06,0-.09,0-.91,0-1.81,0-2.72,0-.08,0-.16,.01-.22-.07-.04-.1,0-.2,.04-.3,.37-1.05,.73-2.1,1.1-3.14,1.21-3.48,2.42-6.96,3.64-10.43,.17-.49,.28-.98,.28-1.5,0-.1,0-.1,.09-.21h3.79s.06,0,.09,0c.12,0,.19,.05,.23,.16,.16,.47,.33,.93,.5,1.4,1.63,4.55,3.26,9.1,4.89,13.65,.02,.06,.05,.12,.06,.18,0,.06,0,.12,0,.19Zm11.56-6.37c-.02,.36-.05,.73-.08,1.09-.02,.19-.08,.24-.27,.26-.31,.02-.62,.06-.94,.06-.3,0-.59-.01-.89-.02-.24,0-.49-.03-.73-.03-1.44,0-2.88,0-4.32,0h-.25c.02,.13,.03,.22,.05,.32,.12,.53,.33,1.02,.72,1.41,.21,.21,.45,.38,.73,.5,.72,.31,1.48,.44,2.27,.39,.7-.05,1.39-.15,2.07-.32,.2-.05,.39-.13,.6-.2,.01,.05,.03,.1,.03,.14,0,.76,0,1.52,0,2.27,0,.16-.07,.26-.22,.33-.54,.22-1.1,.36-1.68,.46-.89,.14-1.78,.17-2.67,.1-.88-.07-1.72-.27-2.49-.71-1.13-.64-1.92-1.58-2.34-2.79-.65-1.85-.6-3.7,.16-5.51,.51-1.21,1.35-2.16,2.52-2.79,.5-.27,1.04-.43,1.61-.5,.57-.07,1.15-.1,1.72-.04,1.14,.12,2.17,.51,2.99,1.35,.53,.55,.89,1.21,1.13,1.93,.25,.75,.34,1.52,.29,2.31Z"/>
      <path d="M29.05,18.16c-.27-.1-.56-.11-.84-.1-.81,.02-1.42,.39-1.83,1.09-.17,.29-.27,.61-.33,.95-.01,.06,0,.12-.01,.2h.21c1.12,0,2.23,0,3.35,0,.15,0,.31-.01,.46-.02,.12,0,.23-.04,.33-.13,0-.03,0-.06,0-.08,.02-.83-.53-1.61-1.34-1.89Z"/>
      <path d="M15.96,19.7c-.51-1.64-1.05-3.26-1.5-4.92-.02-.06-.04-.12-.06-.18-.05,.04-.06,.08-.07,.11-.05,.2-.09,.41-.15,.61-.24,.81-.48,1.63-.73,2.44-.3,.98-.61,1.96-.91,2.93,0,.03-.01,.06-.03,.11h3.78c-.01-.06-.02-.1-.03-.14-.1-.33-.21-.65-.31-.98Z"/>
    </g>
  </g>
</svg>