<?xml version="1.0" encoding="UTF-8"?>
<svg id="Layer_2" data-name="Layer 2" xmlns="http://www.w3.org/2000/svg" viewBox="0 0 40.75 39.74">
  <g id="Layer_1-2" data-name="Layer 1">
    <g>
      <path d="M24.11,16.74c-1.05-.01-2.02,.26-2.91,.81-2.63,1.62-3.03,4.98-.85,7.1,1.96,1.91,5.39,1.95,7.4,.09,1.78-1.65,2.04-4.15,.58-6-1.07-1.36-2.52-1.97-4.23-1.99Zm2.05,7.01c-.59,.38-1.24,.58-1.85,.56-1.07,0-1.91-.32-2.59-1.01-1.22-1.24-1.13-3.1,.2-4.24,1.28-1.1,3.31-1.1,4.59,0,1.53,1.32,1.36,3.58-.35,4.69Z"/>
      <path d="M34.45,0H6.3C2.82,0,0,2.82,0,6.3v27.13c0,3.48,2.82,6.3,6.3,6.3h28.14c3.48,0,6.3-2.82,6.3-6.3V6.3c0-3.48-2.82-6.3-6.3-6.3Zm-3.82,27.1c-1.45,1.58-3.29,2.47-5.4,2.7-2.96,.33-5.56-.5-7.65-2.68-1.07-1.11-1.74-2.45-1.95-3.99-.05-.33,0-.68,0-1.1-.67,.55-1.28,1.05-1.89,1.54-.92,.76-1.84,1.52-2.77,2.27-.51,.41-1.08,.66-1.75,.53-.89-.18-1.32-.92-1.06-1.79,.14-.48,.44-.84,.83-1.14,2.45-1.88,4.9-3.76,7.35-5.64,.43-.33,.86-.66,1.33-1.03-.15,0-.25-.01-.34-.01-1.43,0-2.86,0-4.28,0-.22,0-.45-.02-.67-.09-.76-.23-1.03-.98-.57-1.63,.39-.56,.96-.8,1.63-.8,3.08,0,6.16,0,9.24,0h.36c-.67-.54-1.28-1.04-1.9-1.54-.39-.32-.79-.64-1.18-.96-.55-.46-.53-1.1,.05-1.53,.57-.42,1.42-.43,1.98,0,2.63,2.02,5.28,4.02,7.88,6.07,1.53,1.21,2.46,2.83,2.73,4.77,.32,2.33-.39,4.35-1.97,6.07Z"/>
    </g>
  </g>
</svg>