<?xml version="1.0" encoding="UTF-8"?>
<svg id="Layer_2" data-name="Layer 2" xmlns="http://www.w3.org/2000/svg" viewBox="0 0 40.75 39.74">
  <g id="Layer_1-2" data-name="Layer 1">
    <g>
      <path d="M15.33,13.99c-.56-.22-1.14-.35-1.74-.35-.7,0-1.4,0-2.1,0-.09,0-.18-.01-.27,.06v6.06s.07,.02,.09,.02c.62,.05,1.23,.04,1.85,.02,.51-.02,1.02-.1,1.52-.23,.53-.14,1.02-.35,1.44-.7,.44-.37,.73-.83,.84-1.39,.09-.45,.12-.91,.05-1.36-.16-1.02-.71-1.74-1.67-2.13Z"/>
      <path d="M34.45,0H6.3C2.82,0,0,2.82,0,6.3v27.13c0,3.48,2.82,6.3,6.3,6.3h28.14c3.48,0,6.3-2.82,6.3-6.3V6.3c0-3.48-2.82-6.3-6.3-6.3Zm-13.81,18.94c-.51,1.58-1.58,2.69-3.04,3.43-.73,.37-1.51,.57-2.31,.71-1.13,.19-2.27,.2-3.42,.16-.19,0-.37,0-.56-.01-.03,0-.05,0-.08,.01-.05,.08-.03,.16-.03,.24,0,1.81,0,3.61,0,5.42,0,.06,0,.11,0,.17,0,.16-.08,.23-.25,.24-.05,0-.1,0-.15,0-1.05,0-2.1,0-3.16,0-.03,0-.06,0-.08,0-.26,0-.31-.05-.31-.32,0-.18,0-.36,0-.54,0-5.97,0-11.94,0-17.91,0-.11-.02-.22,.04-.32,.07-.07,.14-.07,.21-.07,1.83-.02,3.67-.11,5.5-.1,1,0,1.99,.06,2.97,.3,.8,.2,1.57,.49,2.27,.95,1.25,.81,2.09,1.92,2.49,3.36,.4,1.43,.36,2.87-.09,4.28Zm10.29,10.1c-.79,.36-1.62,.54-2.49,.61-1.33,.11-2.64,0-3.94-.3-.44-.1-.86-.26-1.27-.44-.2-.09-.29-.22-.29-.45,0-1,0-1.99,0-2.99,0-.1-.02-.21,.08-.27,.09-.03,.16,.02,.22,.06,1.31,.74,2.73,1.08,4.23,1.12,.4,.01,.8-.01,1.2-.11,.14-.03,.28-.08,.41-.14,.53-.26,.65-.88,.25-1.31-.16-.18-.36-.31-.57-.42-.5-.27-1.03-.47-1.56-.67-.84-.31-1.64-.71-2.37-1.22-.83-.58-1.45-1.32-1.72-2.32-.43-1.64,.12-3.59,1.88-4.7,.74-.47,1.55-.73,2.41-.84,1.35-.17,2.69-.08,4.03,.16,.37,.07,.72,.19,1.07,.32,.16,.06,.24,.18,.25,.34,0,.02,0,.04,0,.06,0,.97,0,1.94,0,2.91,0,.08,0,.15-.08,.21-.14,.06-.27,.05-.41-.02-.74-.39-1.55-.59-2.37-.71-.61-.09-1.22-.14-1.84-.09-.23,.02-.45,.07-.67,.13-.23,.07-.41,.2-.52,.42-.17,.32-.13,.65,.11,.93,.17,.19,.37,.34,.59,.45,.52,.26,1.04,.51,1.59,.71,.88,.31,1.71,.72,2.49,1.22,.95,.61,1.61,1.44,1.79,2.58,.34,2.14-.66,3.9-2.52,4.76Z"/>
    </g>
  </g>
</svg>