<?xml version="1.0" encoding="UTF-8"?>
<svg id="Layer_2" data-name="Layer 2" xmlns="http://www.w3.org/2000/svg" viewBox="0 0 40.75 39.74">
  <g id="Layer_1-2" data-name="Layer 1">
    <g>
      <path d="M13.82,12.37s-.05-.02-.07-.02c-1.05,1.43-2.09,2.85-3.17,4.31h3.08c.05-1.44,.11-2.87,.16-4.29Z"/>
      <path d="M14.75,11.27c-.08,1.55-.16,3.07-.25,4.69,1.61-1.76,3.15-3.44,4.73-5.17-1.54,.16-3,.32-4.48,.48Z"/>
      <path d="M25.63,16.66c-1.78-1.96-3.53-3.87-5.29-5.81-1.78,1.94-3.53,3.85-5.33,5.81h10.62Z"/>
      <path d="M10.65,17.53c2.52,2.94,5.01,5.83,7.49,8.73,.02-.02,.04-.04,.06-.06-1.49-2.9-2.99-5.79-4.47-8.67h-3.08Z"/>
      <path d="M25.88,11.27c-1.51-.16-2.97-.31-4.52-.47,1.6,1.74,3.16,3.42,4.77,5.18-.09-1.63-.17-3.16-.25-4.7Z"/>
      <path d="M22.47,26.21s.05,.03,.07,.05c2.48-2.89,4.97-5.79,7.49-8.73h-3.13c-1.48,2.89-2.96,5.79-4.43,8.68Z"/>
      <path d="M34.45,0H6.3C2.82,0,0,2.82,0,6.3v27.13c0,3.48,2.82,6.3,6.3,6.3h28.14c3.48,0,6.3-2.82,6.3-6.3V6.3c0-3.48-2.82-6.3-6.3-6.3Zm-3.34,17.54c-1.31,1.53-2.62,3.05-3.93,4.57-2.11,2.46-4.22,4.91-6.34,7.37-.04,.04-.07,.08-.11,.12-.31,.35-.47,.36-.78,0-.96-1.11-1.91-2.23-2.87-3.34-2.49-2.9-4.99-5.8-7.48-8.71-.07-.08-.14-.17-.19-.23-.08-.32,.02-.55,.2-.78,1.43-1.89,2.85-3.78,4.26-5.69,.2-.26,.4-.39,.74-.42,1.84-.17,3.67-.41,5.51-.56,.64-.05,1.3,.08,1.94,.15,1.39,.16,2.78,.32,4.17,.5,.17,.02,.38,.13,.48,.26,1.51,1.97,3,3.94,4.5,5.92,.21,.28,.18,.49-.12,.83Z"/>
      <path d="M14.68,17.53c1.89,3.67,3.76,7.31,5.67,11.01,1.89-3.71,3.75-7.35,5.62-11.01H14.68Z"/>
      <path d="M26.79,12.37c.08,1.42,.15,2.85,.23,4.29h3.09c-1.11-1.48-2.18-2.9-3.25-4.32l-.06,.03Z"/>
    </g>
  </g>
</svg>