<?xml version="1.0" encoding="UTF-8"?>
<svg id="Layer_2" data-name="Layer 2" xmlns="http://www.w3.org/2000/svg" viewBox="0 0 40.96 39.95">
  <g id="Layer_1-2" data-name="Layer 1">
    <g>
      <path d="M34.63,0H6.34C2.84,0,0,2.84,0,6.34v27.28c0,3.5,2.84,6.34,6.34,6.34h28.29c3.5,0,6.34-2.84,6.34-6.34V6.34c0-3.5-2.84-6.34-6.34-6.34Zm-9.43,28.1c-.09,.07-.17,.05-.26,.05-1.13,0-2.26,0-3.39,0-.21,0-.32-.08-.38-.28-.43-1.25-.86-2.5-1.29-3.75-.03-.07-.05-.14-.08-.22h-6.32c-.06,.06-.07,.15-.1,.23-.4,1.23-.79,2.46-1.19,3.68-.1,.3-.14,.33-.46,.33-.99,0-1.97,0-2.96,0-.36,0-.41-.07-.29-.42,1.41-4.05,2.82-8.1,4.22-12.15,.46-1.32,.94-2.63,1.36-3.96,.12-.38,.14-.78,.15-1.17,0-.27,.03-.3,.29-.3,1.38,0,2.77,0,4.15,0,.22,0,.33,.07,.4,.29,2.04,5.77,4.08,11.53,6.12,17.29,.04,.11,.1,.23,.04,.36Zm5.36,.14c-1.02,0-2.04,0-3.06,0-.34,0-.4-.06-.4-.4,0-2.15,0-4.3,0-6.45,0-2.14,0-4.29,0-6.43,0-.36,.03-.39,.39-.39,1.03,0,2.07,0,3.1,0,.3,0,.34,.04,.34,.34,0,4.32,0,8.64,0,12.96,0,.33-.04,.37-.37,.37Zm-1.43-15.09c-1.37,.03-2.23-.95-2.21-2.15,0-1.23,.91-2.14,2.14-2.14,1.27,0,2.11,.85,2.11,2.12,0,1.24-.87,2.14-2.04,2.17Z"/>
      <path d="M14.47,20.42h4.3c-.75-2.38-1.53-4.71-2.19-7.08-.6,2.39-1.42,4.71-2.11,7.08Z"/>
    </g>
  </g>
</svg>