<?xml version="1.0" encoding="UTF-8"?>
<svg id="Layer_2" data-name="Layer 2" xmlns="http://www.w3.org/2000/svg" viewBox="0 0 40.75 39.74">
  <g id="Layer_1-2" data-name="Layer 1">
    <g>
      <path d="M24.47,16.6c-1.82,0-3.3,1.45-3.31,3.25,0,1.8,1.46,3.26,3.28,3.27,1.85,.02,3.33-1.43,3.33-3.25,0-1.83-1.46-3.28-3.31-3.27Z"/>
      <path d="M16.17,24.71c-1.72,.03-3.14,1.41-3.19,3.09-.06,1.82,1.22,3.24,3.05,3.41,1.65,.15,3.32-1.1,3.48-2.77,.12-1.22,.02-2.45,.02-3.73-1.12,0-2.24-.02-3.36,0Z"/>
      <path d="M15.97,16.63c-1.69,.11-2.96,1.49-3,3.13-.04,1.7,1.12,3.11,2.82,3.31,.81,.1,1.63,.04,2.45,.05,.43,0,.87,0,1.32,0v-6.51c-1.21,0-2.41-.06-3.6,.01Z"/>
      <path d="M16.54,8.51c-.35,0-.71,.02-1.06,.1-1.63,.38-2.68,1.88-2.5,3.55,.17,1.59,1.55,2.84,3.2,2.87,1.05,.02,2.11,0,3.16,0,.08,0,.15-.02,.22-.04v-6.49c-1.04,0-2.03,0-3.03,0Z"/>
      <path d="M24.92,8.55c-.84-.09-1.7-.04-2.55-.05-.39,0-.77,0-1.18,0v6.5c.07,0,.13,.02,.19,.02,1.14,0,2.28,.05,3.41-.02,1.68-.1,2.96-1.49,3-3.13,.04-1.72-1.16-3.14-2.86-3.32Z"/>
      <path d="M34.45,0H6.3C2.82,0,0,2.82,0,6.3v27.13c0,3.48,2.82,6.3,6.3,6.3h28.14c3.48,0,6.3-2.82,6.3-6.3V6.3c0-3.48-2.82-6.3-6.3-6.3Zm-5.08,19.85c.01,1.17-.39,2.2-1.11,3.11-1.38,1.72-4.52,2.63-7.07,.54,0,.13-.02,.25-.02,.36,0,1.37,.01,2.75,0,4.12-.03,2.48-1.88,4.49-4.42,4.8-2.33,.29-4.64-1.29-5.21-3.64-.48-1.99,.12-3.67,1.69-4.99,.09-.08,.19-.14,.31-.24-2.87-2.02-2.86-6.1,0-8.12-.11-.08-.21-.16-.3-.24-1.63-1.28-2.27-3.45-1.6-5.4,.67-1.93,2.5-3.25,4.56-3.25,2.78,0,5.57,0,8.35,0,2.07,0,3.91,1.33,4.57,3.28,.66,1.96,.01,4.12-1.63,5.39-.08,.06-.17,.13-.28,.22,1.38,1.01,2.14,2.33,2.16,4.04Z"/>
    </g>
  </g>
</svg>